<mxfile host="app.diagrams.net" modified="2023-12-17T16:24:57.068Z" agent="Mozilla/5.0 (Macintosh; Intel Mac OS X 10_15_7) AppleWebKit/537.36 (KHTML, like Gecko) Chrome/120.0.0.0 Safari/537.36" etag="bfUYogG2Is2cxVJR7Yfo" version="22.1.11" type="github">
  <diagram name="第 1 页" id="z60zmUDA_NRWNLkNqfMZ">
    <mxGraphModel dx="1026" dy="1784" grid="1" gridSize="10" guides="1" tooltips="1" connect="1" arrows="1" fold="1" page="1" pageScale="1" pageWidth="827" pageHeight="1169" math="0" shadow="0">
      <root>
        <mxCell id="0" />
        <mxCell id="1" parent="0" />
        <mxCell id="jyB_UmzL48LcIVnqlv-9-24" value="" style="rounded=0;whiteSpace=wrap;html=1;" parent="1" vertex="1">
          <mxGeometry x="20" y="20" width="480" height="1470" as="geometry" />
        </mxCell>
        <mxCell id="jyB_UmzL48LcIVnqlv-9-1" value="webpixe" style="rounded=0;whiteSpace=wrap;html=1;" parent="1" vertex="1">
          <mxGeometry x="40" y="60" width="120" height="60" as="geometry" />
        </mxCell>
        <mxCell id="jyB_UmzL48LcIVnqlv-9-2" value="js sdk" style="rounded=0;whiteSpace=wrap;html=1;" parent="1" vertex="1">
          <mxGeometry x="40" y="160" width="120" height="60" as="geometry" />
        </mxCell>
        <mxCell id="jyB_UmzL48LcIVnqlv-9-3" value="webhook" style="rounded=0;whiteSpace=wrap;html=1;" parent="1" vertex="1">
          <mxGeometry x="40" y="250" width="120" height="60" as="geometry" />
        </mxCell>
        <mxCell id="jyB_UmzL48LcIVnqlv-9-4" value="track&lt;br&gt;&lt;br&gt;service" style="rounded=0;whiteSpace=wrap;html=1;" parent="1" vertex="1">
          <mxGeometry x="200" y="60" width="120" height="250" as="geometry" />
        </mxCell>
        <mxCell id="jyB_UmzL48LcIVnqlv-9-5" value="kafka" style="rounded=0;whiteSpace=wrap;html=1;" parent="1" vertex="1">
          <mxGeometry x="360" y="60" width="120" height="250" as="geometry" />
        </mxCell>
        <mxCell id="jyB_UmzL48LcIVnqlv-9-6" value="meta" style="rounded=0;whiteSpace=wrap;html=1;" parent="1" vertex="1">
          <mxGeometry x="40" y="390" width="120" height="60" as="geometry" />
        </mxCell>
        <mxCell id="jyB_UmzL48LcIVnqlv-9-7" value="google" style="rounded=0;whiteSpace=wrap;html=1;" parent="1" vertex="1">
          <mxGeometry x="40" y="480" width="120" height="60" as="geometry" />
        </mxCell>
        <mxCell id="jyB_UmzL48LcIVnqlv-9-8" value="bing" style="rounded=0;whiteSpace=wrap;html=1;" parent="1" vertex="1">
          <mxGeometry x="40" y="560" width="120" height="60" as="geometry" />
        </mxCell>
        <mxCell id="jyB_UmzL48LcIVnqlv-9-9" value="linkedin" style="rounded=0;whiteSpace=wrap;html=1;" parent="1" vertex="1">
          <mxGeometry x="40" y="640" width="120" height="60" as="geometry" />
        </mxCell>
        <mxCell id="jyB_UmzL48LcIVnqlv-9-10" value="tiktok" style="rounded=0;whiteSpace=wrap;html=1;" parent="1" vertex="1">
          <mxGeometry x="40" y="720" width="120" height="60" as="geometry" />
        </mxCell>
        <mxCell id="jyB_UmzL48LcIVnqlv-9-11" value="pinterest" style="rounded=0;whiteSpace=wrap;html=1;" parent="1" vertex="1">
          <mxGeometry x="40" y="800" width="120" height="60" as="geometry" />
        </mxCell>
        <mxCell id="jyB_UmzL48LcIVnqlv-9-12" value="klaviyo" style="rounded=0;whiteSpace=wrap;html=1;" parent="1" vertex="1">
          <mxGeometry x="40" y="920" width="120" height="60" as="geometry" />
        </mxCell>
        <mxCell id="jyB_UmzL48LcIVnqlv-9-13" value="mailchimp" style="rounded=0;whiteSpace=wrap;html=1;" parent="1" vertex="1">
          <mxGeometry x="40" y="1010" width="120" height="60" as="geometry" />
        </mxCell>
        <mxCell id="jyB_UmzL48LcIVnqlv-9-14" value="omnisend" style="rounded=0;whiteSpace=wrap;html=1;" parent="1" vertex="1">
          <mxGeometry x="40" y="1090" width="120" height="60" as="geometry" />
        </mxCell>
        <mxCell id="jyB_UmzL48LcIVnqlv-9-15" value="shopify" style="rounded=0;whiteSpace=wrap;html=1;" parent="1" vertex="1">
          <mxGeometry x="40" y="1210" width="120" height="60" as="geometry" />
        </mxCell>
        <mxCell id="jyB_UmzL48LcIVnqlv-9-16" value="woocommerce" style="rounded=0;whiteSpace=wrap;html=1;" parent="1" vertex="1">
          <mxGeometry x="40" y="1310" width="120" height="60" as="geometry" />
        </mxCell>
        <mxCell id="jyB_UmzL48LcIVnqlv-9-17" value="magento" style="rounded=0;whiteSpace=wrap;html=1;" parent="1" vertex="1">
          <mxGeometry x="40" y="1400" width="120" height="60" as="geometry" />
        </mxCell>
        <mxCell id="jyB_UmzL48LcIVnqlv-9-18" value="ad&lt;br&gt;&lt;br&gt;service" style="rounded=0;whiteSpace=wrap;html=1;" parent="1" vertex="1">
          <mxGeometry x="200" y="390" width="120" height="470" as="geometry" />
        </mxCell>
        <mxCell id="jyB_UmzL48LcIVnqlv-9-19" value="mail&lt;br&gt;&lt;br&gt;service" style="rounded=0;whiteSpace=wrap;html=1;" parent="1" vertex="1">
          <mxGeometry x="200" y="920" width="120" height="230" as="geometry" />
        </mxCell>
        <mxCell id="jyB_UmzL48LcIVnqlv-9-20" value="ecommerce&lt;br&gt;&lt;br&gt;service" style="rounded=0;whiteSpace=wrap;html=1;" parent="1" vertex="1">
          <mxGeometry x="200" y="1210" width="120" height="250" as="geometry" />
        </mxCell>
        <mxCell id="jyB_UmzL48LcIVnqlv-9-21" value="3rd&lt;br&gt;&lt;br&gt;api&lt;br&gt;&lt;br&gt;service" style="rounded=0;whiteSpace=wrap;html=1;" parent="1" vertex="1">
          <mxGeometry x="360" y="390" width="120" height="1070" as="geometry" />
        </mxCell>
        <mxCell id="jyB_UmzL48LcIVnqlv-9-22" value="data&lt;br&gt;&lt;br&gt;analysis&lt;br&gt;&lt;br&gt;service" style="rounded=0;whiteSpace=wrap;html=1;" parent="1" vertex="1">
          <mxGeometry x="580" y="20" width="120" height="1470" as="geometry" />
        </mxCell>
        <mxCell id="jyB_UmzL48LcIVnqlv-9-23" value="" style="rounded=0;whiteSpace=wrap;html=1;" parent="1" vertex="1">
          <mxGeometry x="770" y="20" width="190" height="1470" as="geometry" />
        </mxCell>
        <mxCell id="jyB_UmzL48LcIVnqlv-9-26" value="Data Collecting Layer" style="text;html=1;align=center;verticalAlign=middle;resizable=0;points=[];autosize=1;strokeColor=none;fillColor=none;" parent="1" vertex="1">
          <mxGeometry x="170" y="-20" width="140" height="30" as="geometry" />
        </mxCell>
        <mxCell id="ryWL0rZuBNHNWBqCZ-Gl-1" value="Data Analysis Layer" style="text;html=1;strokeColor=none;fillColor=none;align=center;verticalAlign=middle;whiteSpace=wrap;rounded=0;" vertex="1" parent="1">
          <mxGeometry x="575" y="-20" width="130" height="30" as="geometry" />
        </mxCell>
        <mxCell id="ryWL0rZuBNHNWBqCZ-Gl-2" value="Data Storage Layer" style="text;html=1;strokeColor=none;fillColor=none;align=center;verticalAlign=middle;whiteSpace=wrap;rounded=0;" vertex="1" parent="1">
          <mxGeometry x="805" y="-20" width="120" height="30" as="geometry" />
        </mxCell>
        <mxCell id="ryWL0rZuBNHNWBqCZ-Gl-3" value="redis" style="rounded=0;whiteSpace=wrap;html=1;" vertex="1" parent="1">
          <mxGeometry x="805" y="70" width="120" height="60" as="geometry" />
        </mxCell>
        <mxCell id="ryWL0rZuBNHNWBqCZ-Gl-4" value="application events" style="rounded=0;whiteSpace=wrap;html=1;" vertex="1" parent="1">
          <mxGeometry x="20" y="1540" width="940" height="90" as="geometry" />
        </mxCell>
        <mxCell id="ryWL0rZuBNHNWBqCZ-Gl-5" value="mysql" style="rounded=0;whiteSpace=wrap;html=1;" vertex="1" parent="1">
          <mxGeometry x="805" y="270" width="120" height="60" as="geometry" />
        </mxCell>
        <mxCell id="ryWL0rZuBNHNWBqCZ-Gl-6" value="clickhouse" style="rounded=0;whiteSpace=wrap;html=1;" vertex="1" parent="1">
          <mxGeometry x="805" y="1290" width="120" height="60" as="geometry" />
        </mxCell>
      </root>
    </mxGraphModel>
  </diagram>
</mxfile>
